<?xml version="1.0" encoding="UTF-8" standalone="no"?>
<!-- Created with Inkscape (http://www.inkscape.org/) -->

<svg
   xmlns:dc="http://purl.org/dc/elements/1.1/"
   xmlns:cc="http://creativecommons.org/ns#"
   xmlns:rdf="http://www.w3.org/1999/02/22-rdf-syntax-ns#"
   xmlns:svg="http://www.w3.org/2000/svg"
   xmlns="http://www.w3.org/2000/svg"
   xmlns:sodipodi="http://sodipodi.sourceforge.net/DTD/sodipodi-0.dtd"
   xmlns:inkscape="http://www.inkscape.org/namespaces/inkscape"
   version="1.1"
   id="svg59017"
   xml:space="preserve"
   width="666.66669"
   height="666.66669"
   viewBox="0 0 666.66669 666.66669"
   sodipodi:docname="horse-low-poly-publicdomainvectors.org.svg"
   inkscape:version="0.92.4 (5da689c313, 2019-01-14)"><metadata
     id="metadata59023"><rdf:RDF><cc:Work
         rdf:about=""><dc:format>image/svg+xml</dc:format><dc:type
           rdf:resource="http://purl.org/dc/dcmitype/StillImage" /><dc:title></dc:title></cc:Work></rdf:RDF></metadata><defs
     id="defs59021"><clipPath
       clipPathUnits="userSpaceOnUse"
       id="clipPath59033"><path
         d="M 0,500 H 500 V 0 H 0 Z"
         id="path59031"
         inkscape:connector-curvature="0" /></clipPath></defs><sodipodi:namedview
     pagecolor="#ffffff"
     bordercolor="#666666"
     borderopacity="1"
     objecttolerance="10"
     gridtolerance="10"
     guidetolerance="10"
     inkscape:pageopacity="0"
     inkscape:pageshadow="2"
     inkscape:window-width="797"
     inkscape:window-height="480"
     id="namedview59019"
     showgrid="false"
     inkscape:zoom="0.35399999"
     inkscape:cx="333.33334"
     inkscape:cy="333.33334"
     inkscape:window-x="0"
     inkscape:window-y="0"
     inkscape:window-maximized="0"
     inkscape:current-layer="g59025" /><g
     id="g59025"
     inkscape:groupmode="layer"
     inkscape:label="horse-low-poly-publicdomainvectors.org"
     transform="matrix(1.3333333,0,0,-1.3333333,0,666.66667)"><g
       id="g59027"><g
         id="g59029"
         clip-path="url(#clipPath59033)"><path
           d="m 352.632,94.18 c 0.181,0.338 0.384,0.672 0.614,0.998 -0.124,0.138 -0.246,0.279 -0.369,0.418 L 340.578,94.76 Z"
           style="fill:#5885bd;fill-opacity:1;fill-rule:nonzero;stroke:none"
           id="path59035"
           inkscape:connector-curvature="0" /><path
           d="m 326.202,91.833 c 0.995,-0.702 2.296,-1.254 3.946,-1.628 -0.877,-0.421 -1.233,-1.139 -1.068,-2.131 h 22.747 c -0.475,2.192 -0.207,4.228 0.805,6.106 l -12.054,0.58 z"
           style="fill:#7093c6;fill-opacity:1;fill-rule:nonzero;stroke:none"
           id="path59037"
           inkscape:connector-curvature="0" /><path
           d="m 470.232,378.323 c 0.356,6.647 2.223,11.643 -2.755,17.288 l -8.38,-1.404 z"
           style="fill:#af7781;fill-opacity:1;fill-rule:nonzero;stroke:none"
           id="path59039"
           inkscape:connector-curvature="0" /><path
           d="m 431.805,338.096 14.955,-3.078 c 0.511,3.397 1.117,6.556 1.433,8.814 0.417,3.007 0.895,6.007 1.365,9.006 5.646,-1.519 6.787,14.292 7.815,16.702 2.81,-4.332 0.553,-23.278 4.624,-25.231 2.872,0.777 -0.505,6.133 1.774,7.462 0,-7.809 -1.081,-9.541 4.266,-8.174 -0.025,-1.288 0.573,-2.117 1.776,-2.486 2.178,2.265 -0.047,5.238 -0.712,7.46 3.911,4.284 3.586,-7.005 4.909,4.788 0.699,6.15 -0.278,13.216 -3.489,18.637 l -0.004,0.022 c -0.364,2.281 -0.389,4.363 -0.285,6.305 l -11.135,15.884 z"
           style="fill:#b4918e;fill-opacity:1;fill-rule:nonzero;stroke:none"
           id="path59041"
           inkscape:connector-curvature="0" /><path
           d="m 437.179,167.081 c 0.111,1.762 0.251,3.474 0.372,5.16 l -5.364,-3.24 z"
           style="fill:#7498c8;fill-opacity:1;fill-rule:nonzero;stroke:none"
           id="path59043"
           inkscape:connector-curvature="0" /><path
           d="m 437.551,172.241 c 0.497,6.904 0.668,13.428 -2.847,21.619 l -2.517,-24.859 z"
           style="fill:#8aafd4;fill-opacity:1;fill-rule:nonzero;stroke:none"
           id="path59045"
           inkscape:connector-curvature="0" /><path
           d="m 190.45,88.074 -2.324,0.248 c 0.688,-0.16 1.458,-0.245 2.324,-0.248"
           style="fill:#ae858b;fill-opacity:1;fill-rule:nonzero;stroke:none"
           id="path59047"
           inkscape:connector-curvature="0" /><path
           d="m 432.187,169.001 -0.694,-27.507 c 1.322,2.124 2.339,4.638 3.337,6.822 1.532,3.294 2.409,6.85 2.214,10.499 -0.127,2.935 -0.028,5.658 0.135,8.266 z"
           style="fill:#5f92c3;fill-opacity:1;fill-rule:nonzero;stroke:none"
           id="path59049"
           inkscape:connector-curvature="0" /><path
           d="m 440.629,303.808 c 5.558,3.251 10.111,8.578 6.823,13.87 -2.277,3.688 -1.653,10.939 -0.692,17.34 l -14.955,3.078 z"
           style="fill:#b2a9a3;fill-opacity:1;fill-rule:nonzero;stroke:none"
           id="path59051"
           inkscape:connector-curvature="0" /><path
           d="m 467.477,395.611 c -0.472,0.533 -1,1.072 -1.601,1.619 -1.22,1.113 -2.063,2.082 -2.604,2.943 l -4.175,-5.966 z"
           style="fill:#aa5e71;fill-opacity:1;fill-rule:nonzero;stroke:none"
           id="path59053"
           inkscape:connector-curvature="0" /><path
           d="m 454.566,426.479 c 5.294,0.764 11.792,5.043 1.974,5.464 -4.102,0.177 -15.873,-1.055 -23.819,0.001 l 4.679,-6.697 c 5.793,-0.389 11.441,0.407 17.166,1.232"
           style="fill:#ad6270;fill-opacity:1;fill-rule:nonzero;stroke:none"
           id="path59055"
           inkscape:connector-curvature="0" /><path
           d="m 463.272,400.173 c -4.321,6.872 10.648,6.808 7.952,16.979 -4.97,-0.304 -7.643,-5.972 -12.79,-5.33 2.841,1.549 6.357,2.73 7.104,6.397 -8.61,-0.941 -17.848,-2.957 -24.53,1.867 l 18.089,-25.879 z"
           style="fill:#ad6270;fill-opacity:1;fill-rule:nonzero;stroke:none"
           id="path59057"
           inkscape:connector-curvature="0" /><path
           d="m 437.108,442.03 c -2.949,-1.556 -6.328,-2.159 -9.893,-2.21 l 2.427,-3.471 c 3.976,0.458 9.317,0.605 7.466,5.681"
           style="fill:#ad6270;fill-opacity:1;fill-rule:nonzero;stroke:none"
           id="path59059"
           inkscape:connector-curvature="0" /><path
           d="m 352.877,95.596 c -0.778,0.876 -1.543,1.762 -2.293,2.659 L 340.578,94.76 Z"
           style="fill:#6c9bc9;fill-opacity:1;fill-rule:nonzero;stroke:none"
           id="path59061"
           inkscape:connector-curvature="0" /><path
           d="m 418.446,241.87 4.174,-6.296 c -1.225,2.466 -2.603,4.617 -4.174,6.296"
           style="fill:#b5cccd;fill-opacity:1;fill-rule:nonzero;stroke:none"
           id="path59063"
           inkscape:connector-curvature="0" /><path
           d="m 459.097,394.207 -70.424,-18.513 43.132,-37.598 z"
           style="fill:#c3998f;fill-opacity:1;fill-rule:nonzero;stroke:none"
           id="path59065"
           inkscape:connector-curvature="0" /><path
           d="m 459.097,394.207 -18.089,25.879 c -1.725,1.246 -3.28,2.946 -4.611,5.239 0.335,-0.032 0.669,-0.056 1.003,-0.078 l -4.679,6.697 c -3.195,0.424 -5.772,1.218 -6.984,2.62 0.056,1.21 1.786,1.541 3.905,1.785 l -2.427,3.471 c -3.356,-0.048 -6.878,0.395 -10.367,0.997 l -28.175,-65.123 z"
           style="fill:#c18381;fill-opacity:1;fill-rule:nonzero;stroke:none"
           id="path59067"
           inkscape:connector-curvature="0" /><path
           d="m 426.918,168.639 c -2.234,-3.875 -6.514,-4.774 -10.412,-8.422 0.438,-10.026 1.853,-15.178 7.461,-23.454 3.492,-0.216 5.776,1.917 7.526,4.731 l 0.694,27.507 z"
           style="fill:#75add1;fill-opacity:1;fill-rule:nonzero;stroke:none"
           id="path59069"
           inkscape:connector-curvature="0" /><path
           d="m 418.908,305.469 c 3.776,-2.231 7.87,-3.986 10.719,-4.667 2.496,-0.595 7.008,0.669 11.002,3.006 l -8.824,34.288 z"
           style="fill:#bdc3b5;fill-opacity:1;fill-rule:nonzero;stroke:none"
           id="path59071"
           inkscape:connector-curvature="0" /><path
           d="m 416.848,440.817 c -5.141,0.887 -10.209,2.117 -14.57,2.632 -3.098,-5.411 -11.445,-0.065 -15.637,-2.131 -1.623,0.727 -3.103,1.049 -4.473,1.088 l 6.505,-66.712 z"
           style="fill:#c6827f;fill-opacity:1;fill-rule:nonzero;stroke:none"
           id="path59073"
           inkscape:connector-curvature="0" /><path
           d="m 411.082,338.604 c 4.604,-10.086 -0.394,-16.864 -0.262,-26.634 1.773,-2.267 4.81,-4.564 8.088,-6.501 l 12.897,32.627 z"
           style="fill:#c8c7b1;fill-opacity:1;fill-rule:nonzero;stroke:none"
           id="path59075"
           inkscape:connector-curvature="0" /><path
           d="m 378.611,319.513 c 0.272,2.46 0.756,4.476 1.399,5.117 2.592,5.122 2.549,9.965 3.264,14.657 l -13.687,0.336 z"
           style="fill:#c8c7b1;fill-opacity:1;fill-rule:nonzero;stroke:none"
           id="path59077"
           inkscape:connector-curvature="0" /><path
           d="m 420.658,179.98 c -0.013,-0.241 -0.026,-0.485 -0.042,-0.726 -0.529,-7.771 1.566,-7.865 6.554,-10.151 -0.08,-0.161 -0.165,-0.314 -0.252,-0.464 l 5.269,0.362 z"
           style="fill:#93c6de;fill-opacity:1;fill-rule:nonzero;stroke:none"
           id="path59079"
           inkscape:connector-curvature="0" /><path
           d="m 434.704,193.86 c -0.044,0.101 -0.086,0.201 -0.13,0.302 -1.751,4.003 -3.199,11.514 -5.054,19.589 l -14.992,-0.999 c 1.57,-4.011 2.201,-7.823 3.649,-12.131 2.173,-6.476 2.884,-13.683 2.481,-20.641 l 11.529,-10.979 z"
           style="fill:#97c4de;fill-opacity:1;fill-rule:nonzero;stroke:none"
           id="path59081"
           inkscape:connector-curvature="0" /><path
           d="m 422.62,235.574 -4.174,6.296 c -2.727,2.917 -6.031,4.408 -10.112,3.642 -1.197,1.197 -5.429,2.122 -9.981,2.806 l -6.29,-22.9 c 8.84,1.123 17.069,-0.488 21.752,-10.978 0.259,-0.568 0.496,-1.129 0.713,-1.688 l 14.992,0.999 c -1.744,7.592 -3.847,15.683 -6.9,21.823"
           style="fill:#afd1e2;fill-opacity:1;fill-rule:nonzero;stroke:none"
           id="path59083"
           inkscape:connector-curvature="0" /><path
           d="m 388.673,375.694 -19.086,-36.071 13.687,-0.336 c 0.677,4.435 2.033,8.736 6.934,13.013 5.156,4.496 7.274,8.094 12.062,1.653 3.389,-4.566 6.029,-9.635 8.52,-14.726 0.102,-0.209 0.199,-0.415 0.292,-0.623 l 20.723,-0.508 z"
           style="fill:#ceb39d;fill-opacity:1;fill-rule:nonzero;stroke:none"
           id="path59085"
           inkscape:connector-curvature="0" /><path
           d="m 188.126,88.322 2.324,-0.248 h 0.032 c 11.428,0 17.73,-3.204 23.807,5.328 -2.837,2.412 -5.732,4.737 -8.636,7.025 l -25.26,-0.363 c 1.998,-4.948 2.438,-10.515 7.733,-11.742"
           style="fill:#aca4a7;fill-opacity:1;fill-rule:nonzero;stroke:none"
           id="path59087"
           inkscape:connector-curvature="0" /><path
           d="m 314.049,312.904 21.758,-59.737 33.78,86.456 z"
           style="fill:#e0e2c2;fill-opacity:1;fill-rule:nonzero;stroke:none"
           id="path59089"
           inkscape:connector-curvature="0" /><path
           d="m 385.586,249.774 c -4.319,5.677 -8.017,-0.134 -6.653,9.236 0.093,0.647 0.201,1.291 0.317,1.933 l -43.443,-7.776 39.256,-31.662 c 5.4,1.348 11.325,3.194 17,3.913 l 6.29,22.9 c -5.155,0.777 -10.723,1.246 -12.767,1.456"
           style="fill:#c5e0e0;fill-opacity:1;fill-rule:nonzero;stroke:none"
           id="path59091"
           inkscape:connector-curvature="0" /><path
           d="m 335.807,253.167 43.443,7.776 c 0.765,4.224 1.932,8.366 2.43,12.641 0.121,1.911 2.521,4.636 2.839,6.364 1.623,10.411 -1.064,19.279 -5.179,27.812 -1.035,2.204 -1.186,7.608 -0.729,11.753 l -9.024,20.11 z"
           style="fill:#d3dfc6;fill-opacity:1;fill-rule:nonzero;stroke:none"
           id="path59093"
           inkscape:connector-curvature="0" /><path
           d="m 366.73,436.492 c -3.007,-1.689 -5.651,-3.829 -7.936,-6.423 -4.449,-4.844 -6.797,-4.206 -12.704,-6.598 -5.655,-2.291 -14.041,-3.285 -21.285,-5.252 -0.308,-1.727 -11.233,-6.188 -13.152,-6.753 -1.499,1.131 -3.679,0.752 -5.83,-0.224 l 1.164,-38.792 z"
           style="fill:#df9689;fill-opacity:1;fill-rule:nonzero;stroke:none"
           id="path59095"
           inkscape:connector-curvature="0" /><path
           d="m 324.978,186.551 c 0.011,1.047 0.038,2.098 0.091,3.154 0.209,4.102 3.599,16.849 2.948,19.197 -1.579,7.162 7.37,9.709 17.815,10.696 l -41.134,8.377 z"
           style="fill:#b6deec;fill-opacity:1;fill-rule:nonzero;stroke:none"
           id="path59097"
           inkscape:connector-curvature="0" /><path
           d="m 388.673,375.694 -6.505,66.712 c -6.12,0.175 -10.082,-5.302 -15.071,-5.709 -0.123,-0.067 -0.245,-0.137 -0.367,-0.205 L 306.987,372.45 Z"
           style="fill:#dc9f90;fill-opacity:1;fill-rule:nonzero;stroke:none"
           id="path59099"
           inkscape:connector-curvature="0" /><path
           d="m 388.673,375.694 -81.686,-3.244 62.6,-32.827 z"
           style="fill:#dfba9f;fill-opacity:1;fill-rule:nonzero;stroke:none"
           id="path59101"
           inkscape:connector-curvature="0" /><path
           d="m 304.698,227.975 41.134,-8.377 c 10.555,0.996 22.638,0.399 26.938,1.361 0.751,0.168 1.517,0.352 2.293,0.546 l -39.256,31.662 z"
           style="fill:#cde9ef;fill-opacity:1;fill-rule:nonzero;stroke:none"
           id="path59103"
           inkscape:connector-curvature="0" /><path
           d="m 350.584,98.255 c -1.669,1.999 -3.271,4.052 -4.799,6.165 -1.47,0.607 -2.866,1.366 -4.181,2.243 L 340.578,94.76 Z"
           style="fill:#82afd4;fill-opacity:1;fill-rule:nonzero;stroke:none"
           id="path59105"
           inkscape:connector-curvature="0" /><path
           d="m 369.587,339.623 -62.6,32.827 7.062,-59.546 z"
           style="fill:#e8cead;fill-opacity:1;fill-rule:nonzero;stroke:none"
           id="path59107"
           inkscape:connector-curvature="0" /><path
           d="m 285.23,269.199 50.577,-16.032 -21.758,59.737 z"
           style="fill:#ebf0d3;fill-opacity:1;fill-rule:nonzero;stroke:none"
           id="path59109"
           inkscape:connector-curvature="0" /><path
           d="m 297.972,218.685 c 1.753,-6.17 3.359,-28.46 6.547,-30.438 2.573,-1.594 0.751,-22.181 0.751,-26.967 1.472,-3.354 2.649,-6.558 3.592,-9.699 l 16.372,-2.658 c -0.324,5.792 -0.283,11.694 -0.008,17.726 0.315,6.789 -0.321,13.268 -0.248,19.902 l -20.28,41.424 z"
           style="fill:#bee1ed;fill-opacity:1;fill-rule:nonzero;stroke:none"
           id="path59111"
           inkscape:connector-curvature="0" /><path
           d="m 314.153,108.329 c 6.646,-8.281 0.899,-0.945 7.465,0.357 0.413,-2.822 4.098,-3.095 2.645,-7.717 -1.239,-3.935 -0.883,-7.147 1.939,-9.136 l 14.376,2.927 1.026,11.903 c -5.401,3.602 -9.418,9.223 -11.352,14.927 -1.053,3.105 -1.917,6.238 -2.62,9.396 l -14.806,-12.581 c 0.445,-3.372 1.327,-6.488 1.327,-10.076"
           style="fill:#8eb1d5;fill-opacity:1;fill-rule:nonzero;stroke:none"
           id="path59113"
           inkscape:connector-curvature="0" /><path
           d="m 312.573,121.675 c 0.015,-1.13 0.113,-2.211 0.253,-3.27 l 14.806,12.581 c -1.309,5.874 -2.056,11.845 -2.398,17.937 l -16.372,2.658 c 2.917,-9.708 3.584,-18.811 3.711,-29.906"
           style="fill:#a6c6dd;fill-opacity:1;fill-rule:nonzero;stroke:none"
           id="path59115"
           inkscape:connector-curvature="0" /><path
           d="m 296.264,222.226 c 0.595,-0.765 1.114,-1.75 1.545,-3.016 0.054,-0.159 0.109,-0.336 0.163,-0.525 l 6.726,9.29 z"
           style="fill:#d3ebe7;fill-opacity:1;fill-rule:nonzero;stroke:none"
           id="path59117"
           inkscape:connector-curvature="0" /><path
           d="M 314.049,312.904 306.987,372.45 282.56,324.164 Z"
           style="fill:#f3d7b3;fill-opacity:1;fill-rule:nonzero;stroke:none"
           id="path59119"
           inkscape:connector-curvature="0" /><path
           d="m 304.698,227.975 31.109,25.192 -50.577,16.032 z"
           style="fill:#e4f3e5;fill-opacity:1;fill-rule:nonzero;stroke:none"
           id="path59121"
           inkscape:connector-curvature="0" /><path
           d="m 180.393,100.064 25.26,0.363 c -0.335,0.264 -0.671,0.527 -1.007,0.792 l -27.468,3.865 c 1.51,-1.416 2.47,-3.175 3.215,-5.02"
           style="fill:#b19e9b;fill-opacity:1;fill-rule:nonzero;stroke:none"
           id="path59123"
           inkscape:connector-curvature="0" /><path
           d="m 173.423,105.613 -5.555,0.783 c 1.778,-2.163 3.475,-2.906 5.555,-0.783"
           style="fill:#b19e9b;fill-opacity:1;fill-rule:nonzero;stroke:none"
           id="path59125"
           inkscape:connector-curvature="0" /><path
           d="m 284.229,389.32 c -2.431,-0.433 -4.704,-0.777 -5.687,-1.07 -2.655,-0.791 -4.13,-1.37 -5.049,-2.061 l 1.595,-13.082 c 0.399,0.014 0.745,0.008 1.028,-0.022 -0.262,0.011 -0.607,-0.01 -1.019,-0.057 l 1.165,-9.548 z"
           style="fill:#ef9e87;fill-opacity:1;fill-rule:nonzero;stroke:none"
           id="path59127"
           inkscape:connector-curvature="0" /><path
           d="m 272.928,390.837 0.239,-1.959 c 3.671,1.591 7.762,2.465 11.828,2.929 l 1.978,6.413 c -5.225,-2.267 -10.785,-4.97 -14.045,-7.383"
           style="fill:#ef9e87;fill-opacity:1;fill-rule:nonzero;stroke:none"
           id="path59129"
           inkscape:connector-curvature="0" /><path
           d="m 306.987,372.45 -1.164,38.792 c -2.494,-1.134 -4.948,-3.072 -6.248,-4.398 2.1,-0.53 4.237,-0.886 6.393,-1.064 -4.44,-1.427 -9.61,3.72 -12.083,-1.78 1.645,-0.425 3.303,-0.78 4.978,-1.062 -1.992,-0.7 -6.78,-2.5 -11.89,-4.718 l -1.978,-6.413 c 2.535,0.29 5.062,0.421 7.471,0.466 0.08,-1.316 -4.286,-2.251 -8.237,-2.953 l -7.967,-25.84 z"
           style="fill:#f4ae99;fill-opacity:1;fill-rule:nonzero;stroke:none"
           id="path59131"
           inkscape:connector-curvature="0" /><path
           d="m 306.987,372.45 -30.725,-8.97 6.298,-39.316 z"
           style="fill:#f7cea8;fill-opacity:1;fill-rule:nonzero;stroke:none"
           id="path59133"
           inkscape:connector-curvature="0" /><path
           d="m 285.23,269.199 28.819,43.705 -31.489,11.26 z"
           style="fill:#f2ecc8;fill-opacity:1;fill-rule:nonzero;stroke:none"
           id="path59135"
           inkscape:connector-curvature="0" /><path
           d="m 271.142,381.614 c -2.027,-0.312 -3.928,0.043 -5.686,1.068 0.069,-1.155 0.664,-1.867 1.775,-2.136 -3.542,-1.966 -2.63,-0.455 -5.33,-3.194 -4.71,-1.222 -9.11,1.415 -13.453,-4.845 l 3.192,-1.036 c 0.222,0.056 0.444,0.118 0.666,0.191 -0.155,-0.081 -0.292,-0.173 -0.422,-0.271 l 2.389,-0.775 c 1.612,0.926 3.391,1.983 5.136,1.402 -0.102,-1.744 11.152,0.93 15.679,1.089 l -1.595,13.082 c -1.309,-0.983 -1.492,-2.195 -2.351,-4.575"
           style="fill:#fbb081;fill-opacity:1;fill-rule:nonzero;stroke:none"
           id="path59137"
           inkscape:connector-curvature="0" /><path
           d="m 275.097,373.028 c -3.423,-0.387 -11.547,-2.59 -16.528,-3.806 l 17.693,-5.742 z"
           style="fill:#fbb081;fill-opacity:1;fill-rule:nonzero;stroke:none"
           id="path59139"
           inkscape:connector-curvature="0" /><path
           d="m 270.073,387.299 c 0.989,0.593 2.023,1.117 3.094,1.579 l -0.239,1.959 c -1.763,-1.302 -2.855,-2.521 -2.855,-3.538"
           style="fill:#fbb081;fill-opacity:1;fill-rule:nonzero;stroke:none"
           id="path59141"
           inkscape:connector-curvature="0" /><path
           d="m 226.449,249.923 78.249,-21.948 -19.468,41.224 z"
           style="fill:#f0f8de;fill-opacity:1;fill-rule:nonzero;stroke:none"
           id="path59143"
           inkscape:connector-curvature="0" /><path
           d="m 226.449,249.923 6.892,-17.772 c 14.955,-4.919 28.783,-8.106 46.98,-8.337 6.693,-0.084 12.569,2.739 15.943,-1.588 l 8.434,5.749 z"
           style="fill:#e9f5e8;fill-opacity:1;fill-rule:nonzero;stroke:none"
           id="path59145"
           inkscape:connector-curvature="0" /><path
           d="m 206.027,337.906 20.422,-87.983 56.111,74.241 z"
           style="fill:#fff0ab;fill-opacity:1;fill-rule:nonzero;stroke:none"
           id="path59147"
           inkscape:connector-curvature="0" /><path
           d="m 282.56,324.164 -56.111,-74.241 58.781,19.276 z"
           style="fill:#f9f6c6;fill-opacity:1;fill-rule:nonzero;stroke:none"
           id="path59149"
           inkscape:connector-curvature="0" /><path
           d="M 276.262,363.48 206.027,337.906 282.56,324.164 Z"
           style="fill:#fdd99e;fill-opacity:1;fill-rule:nonzero;stroke:none"
           id="path59151"
           inkscape:connector-curvature="0" /><path
           d="m 276.262,363.48 -17.693,5.742 c -2.106,-0.515 -3.647,-0.853 -4.036,-0.803 1.196,-0.619 2.466,-0.96 3.819,-1.02 -6.442,-3.116 -17.315,2.813 -6.399,-3.198 -4.878,-2.127 -23.905,-2.791 -25.234,-9.241 1.016,-0.33 1.97,-0.803 2.843,-1.419 -9.791,-2.121 -13.786,-2.204 -22.004,-1.218 l -1.531,-14.417 z"
           style="fill:#ffcd89;fill-opacity:1;fill-rule:nonzero;stroke:none"
           id="path59153"
           inkscape:connector-curvature="0" /><path
           d="m 250.887,369.53 c 0.962,-0.288 2.123,0.359 3.386,1.086 l -2.389,0.775 c -0.589,-0.443 -0.927,-1.059 -0.997,-1.861"
           style="fill:#ffcd89;fill-opacity:1;fill-rule:nonzero;stroke:none"
           id="path59155"
           inkscape:connector-curvature="0" /><path
           d="m 254.533,368.419 c -0.032,0.017 -0.065,0.031 -0.097,0.048 0.004,-0.026 0.039,-0.041 0.097,-0.048"
           style="fill:#ffcd89;fill-opacity:1;fill-rule:nonzero;stroke:none"
           id="path59157"
           inkscape:connector-curvature="0" /><path
           d="m 247.683,371.311 c 1.348,-0.224 2.664,-0.168 3.957,0.16 l -3.192,1.036 c -0.256,-0.369 -0.51,-0.765 -0.765,-1.196"
           style="fill:#ffcd89;fill-opacity:1;fill-rule:nonzero;stroke:none"
           id="path59159"
           inkscape:connector-curvature="0" /><path
           d="m 224.86,235.063 c 2.889,-1.026 5.704,-1.999 8.481,-2.912 l -6.892,17.772 z"
           style="fill:#e9f3d8;fill-opacity:1;fill-rule:nonzero;stroke:none"
           id="path59161"
           inkscape:connector-curvature="0" /><path
           d="m 161.941,268.054 64.508,-18.131 -20.422,87.983 z"
           style="fill:#ffeea6;fill-opacity:1;fill-rule:nonzero;stroke:none"
           id="path59163"
           inkscape:connector-curvature="0" /><path
           d="m 149.028,218.15 c 1.675,-0.153 2.642,-0.701 2.575,-1.8 v -0.004 c -0.391,-5.856 -3.581,-12.103 -7.656,-17.83 l -0.328,-1.269 36.482,-1.268 c 6.045,9.551 14.718,14.704 22.045,21.654 l -40.205,50.421 z"
           style="fill:#f0e8c3;fill-opacity:1;fill-rule:nonzero;stroke:none"
           id="path59165"
           inkscape:connector-curvature="0" /><path
           d="m 161.941,268.054 40.205,-50.421 c 5.464,5.183 10.18,11.367 12.499,21.121 3.536,-1.29 6.923,-2.525 10.215,-3.691 l 1.589,14.86 z"
           style="fill:#f6f2c7;fill-opacity:1;fill-rule:nonzero;stroke:none"
           id="path59167"
           inkscape:connector-curvature="0" /><path
           d="m 168.363,180.916 c 4.172,4.334 8.14,9.109 11.256,14.283 0.158,0.265 0.32,0.525 0.482,0.78 l -36.482,1.268 z"
           style="fill:#d9dfc3;fill-opacity:1;fill-rule:nonzero;stroke:none"
           id="path59169"
           inkscape:connector-curvature="0" /><path
           d="m 126.442,317.675 35.499,-49.621 44.086,69.852 z"
           style="fill:#fedc8c;fill-opacity:1;fill-rule:nonzero;stroke:none"
           id="path59171"
           inkscape:connector-curvature="0" /><path
           d="m 161.537,116.112 c 2.546,-3.689 4.482,-7.469 6.331,-9.716 l 5.555,-0.783 c 0.345,0.352 0.699,0.78 1.066,1.293 1.058,-0.503 1.941,-1.12 2.689,-1.822 l 27.468,-3.865 c -11.084,8.699 -22.216,16.969 -30.704,27.767 l -14.454,-9.58 c 0.627,-1.117 1.304,-2.216 2.049,-3.294"
           style="fill:#b8b9b0;fill-opacity:1;fill-rule:nonzero;stroke:none"
           id="path59173"
           inkscape:connector-curvature="0" /><path
           d="m 150.947,138.038 c 3.243,-6.121 5.165,-12.617 8.541,-18.632 l 14.454,9.58 c -4.615,5.869 -8.449,12.488 -11.068,20.328 -0.674,2.019 -1.274,3.912 -1.771,5.704 l -20.52,0.772 c 3.225,-6.245 7.965,-12.75 10.364,-17.752"
           style="fill:#c2beab;fill-opacity:1;fill-rule:nonzero;stroke:none"
           id="path59175"
           inkscape:connector-curvature="0" /><path
           d="m 130.753,151.853 c 0.157,0.675 0.259,1.372 0.289,2.088 0.034,0.655 0.205,1.405 0.474,2.19 l -2.211,0.083 z"
           style="fill:#c2beab;fill-opacity:1;fill-rule:nonzero;stroke:none"
           id="path59177"
           inkscape:connector-curvature="0" /><path
           d="m 129.305,156.214 2.211,-0.083 c 1.117,3.262 3.955,7.164 6.011,7.637 0.5,-2.507 1.63,-5.218 3.056,-7.978 l 20.52,-0.772 c -2.634,9.503 -2.345,16.21 5.539,24.144 0.576,0.577 1.15,1.161 1.721,1.754 l -24.744,16.331 z"
           style="fill:#d3ceb3;fill-opacity:1;fill-rule:nonzero;stroke:none"
           id="path59179"
           inkscape:connector-curvature="0" /><path
           d="m 207.558,352.323 c -1.301,0.157 -2.706,0.339 -4.259,0.545 -5.686,0.751 -11.007,2.47 -16.371,3.382 -2.253,0.389 -4.53,0.715 -6.824,0.982 l 25.923,-19.326 z"
           style="fill:#ffbe77;fill-opacity:1;fill-rule:nonzero;stroke:none"
           id="path59181"
           inkscape:connector-curvature="0" /><path
           d="m 206.027,337.906 -25.923,19.326 c -11.843,1.385 -24.184,1.195 -36.36,-0.19 l -17.302,-39.367 z"
           style="fill:#fec576;fill-opacity:1;fill-rule:nonzero;stroke:none"
           id="path59183"
           inkscape:connector-curvature="0" /><path
           d="m 116.199,244.762 c -1.5,-1.088 -2.935,-2.261 -4.362,-3.444 l 18.983,-26.323 c 7.195,1.863 14.468,3.495 18.208,3.155 l 12.913,49.904 -63.077,0.345 c 4.547,-8.938 11.27,-17.375 17.335,-23.637"
           style="fill:#fbdaa5;fill-opacity:1;fill-rule:nonzero;stroke:none"
           id="path59185"
           inkscape:connector-curvature="0" /><path
           d="m 143.619,197.247 0.328,1.269 c -0.205,-0.289 -0.412,-0.575 -0.621,-0.861 z"
           style="fill:#fbdaa5;fill-opacity:1;fill-rule:nonzero;stroke:none"
           id="path59187"
           inkscape:connector-curvature="0" /><path
           d="m 96.271,274.188 c 0.747,-1.941 1.62,-3.876 2.593,-5.789 l 63.077,-0.345 -35.499,49.621 z"
           style="fill:#ffd58a;fill-opacity:1;fill-rule:nonzero;stroke:none"
           id="path59189"
           inkscape:connector-curvature="0" /><path
           d="m 143.744,357.042 c -1.723,-0.197 -3.443,-0.416 -5.158,-0.658 -15.982,-2.273 -28.926,-4.196 -44.61,-2.314 l 32.466,-36.395 z"
           style="fill:#fda95e;fill-opacity:1;fill-rule:nonzero;stroke:none"
           id="path59191"
           inkscape:connector-curvature="0" /><path
           d="m 111.581,210.296 c 2.279,-0.048 10.703,2.488 19.239,4.699 l -18.983,26.323 c -3.629,-3.009 -7.201,-6.078 -11.628,-7.928 v 0.005 c -2.847,-0.222 -8.767,-6.248 -13.862,-5.686 4.03,10.772 4.582,23.332 3.878,35.597 L 65.37,201.256 86.75,200.16 c 0.042,1.967 0.125,3.548 0.317,4.48 1.751,-1.514 3.49,-3.113 5.214,-4.762 l 22.869,-1.173 c -2.303,3.162 -3.792,6.811 -3.569,11.591"
           style="fill:#f5c7a7;fill-opacity:1;fill-rule:nonzero;stroke:none"
           id="path59193"
           inkscape:connector-curvature="0" /><path
           d="m 143.047,197.276 0.572,-0.029 -0.293,0.408 c -0.093,-0.126 -0.185,-0.253 -0.279,-0.379"
           style="fill:#f5c7a7;fill-opacity:1;fill-rule:nonzero;stroke:none"
           id="path59195"
           inkscape:connector-curvature="0" /><path
           d="m 114.31,134.305 c 1.708,0.468 3.659,1.664 5.83,3.782 4.063,3.962 9.323,8.201 10.613,13.766 l -1.448,4.361 z"
           style="fill:#bca196;fill-opacity:1;fill-rule:nonzero;stroke:none"
           id="path59197"
           inkscape:connector-curvature="0" /><path
           d="m 86.46,186.398 c 0.278,4.772 0.21,9.98 0.29,13.762 l -21.38,1.096 z"
           style="fill:#e0c2a4;fill-opacity:1;fill-rule:nonzero;stroke:none"
           id="path59199"
           inkscape:connector-curvature="0" /><path
           d="m 143.619,197.247 -0.572,0.029 c -4.224,-5.687 -9.205,-10.781 -12.985,-14.342 -4.227,6.117 -10.842,10.186 -14.912,15.771 l -22.869,1.173 c 4.9,-4.693 9.673,-9.816 14.213,-14.691 5.017,-5.383 6.575,-7.543 7.561,-14.45 0.725,-5.098 3.281,-5.598 7.483,-5.546 -0.006,-0.56 -0.54,-1.556 -1.242,-2.628 l 9.009,-6.349 z"
           style="fill:#e0c2a4;fill-opacity:1;fill-rule:nonzero;stroke:none"
           id="path59201"
           inkscape:connector-curvature="0" /><path
           d="M 83.405,313.208 71.287,311.95 89.261,274.693 c -0.49,4.581 -1.065,9.021 -1.595,13.201 -0.721,5.701 -6.326,19.093 -4.261,25.314"
           style="fill:#ffc078;fill-opacity:1;fill-rule:nonzero;stroke:none"
           id="path59203"
           inkscape:connector-curvature="0" /><path
           d="m 93.985,282.208 c 0.472,-2.656 1.259,-5.344 2.286,-8.02 l 30.171,43.487 -33.343,-3.461 c -0.394,-1.298 -0.725,-2.66 -0.98,-4.106 -1.649,-9.37 0.269,-18.919 1.866,-27.9"
           style="fill:#ffc078;fill-opacity:1;fill-rule:nonzero;stroke:none"
           id="path59205"
           inkscape:connector-curvature="0" /><path
           d="m 83.405,313.208 c 0.148,0.444 0.333,0.853 0.563,1.219 2.413,3.828 5.981,10.091 5.577,14.561 4.44,0.656 12.756,6.848 17.062,8.884 -4.923,-8.71 -10.761,-14.616 -13.508,-23.658 l 33.343,3.461 -32.466,36.395 c -0.995,0.119 -2.001,0.253 -3.02,0.404 -6.237,0.927 -12.607,0.266 -18.709,-1.132 l -0.96,-41.392 z"
           style="fill:#fda962;fill-opacity:1;fill-rule:nonzero;stroke:none"
           id="path59207"
           inkscape:connector-curvature="0" /><path
           d="m 106.251,150.235 c 0.052,-0.889 0.108,-1.83 0.139,-2.866 -0.896,-7.784 2.089,-14.668 7.92,-13.064 l 14.995,21.909 z"
           style="fill:#c29c91;fill-opacity:1;fill-rule:nonzero;stroke:none"
           id="path59209"
           inkscape:connector-curvature="0" /><path
           d="m 120.296,162.563 c -1.37,-2.094 -3.382,-4.482 -3.377,-4.482 -0.711,0.812 -1.067,1.759 -1.067,2.843 -3.186,0.444 -6.15,-0.147 -8.885,-1.776 -1.028,-3.486 -0.893,-5.906 -0.716,-8.913 l 23.054,5.979 z"
           style="fill:#d5ab98;fill-opacity:1;fill-rule:nonzero;stroke:none"
           id="path59211"
           inkscape:connector-curvature="0" /><path
           d="m 67.216,161.995 c 4.261,0.08 -0.698,4.902 2.438,6.394 4.31,-10.989 8.298,9.376 11.727,11.373 0.304,-1.907 0.656,-3.799 1.068,-5.687 2.684,0.549 3.647,6.061 4.011,12.323 l -21.09,14.858 z"
           style="fill:#d5ab98;fill-opacity:1;fill-rule:nonzero;stroke:none"
           id="path59213"
           inkscape:connector-curvature="0" /><path
           d="m 50.196,340.73 v -0.002 -0.022 0.022 z m 21.091,-28.78 0.96,41.392 c -2.587,-0.593 -5.125,-1.317 -7.584,-2.111 -3.496,-1.132 -9.529,-4.144 -14.858,-7.949 L 33.116,318.248 Z"
           style="fill:#fa9859;fill-opacity:1;fill-rule:nonzero;stroke:none"
           id="path59215"
           inkscape:connector-curvature="0" /><path
           d="M 89.261,274.693 71.287,311.95 30.072,279.263 c 0.04,-0.948 0.085,-1.894 0.132,-2.841 l 59.631,-7.672 c -0.169,2.001 -0.364,3.984 -0.574,5.943"
           style="fill:#ffb477;fill-opacity:1;fill-rule:nonzero;stroke:none"
           id="path59217"
           inkscape:connector-curvature="0" /><path
           d="m 90.225,263.306 c -0.104,1.823 -0.237,3.64 -0.39,5.444 l -59.631,7.672 c 0.109,-2.207 0.234,-4.413 0.372,-6.617 L 65.37,201.256 Z"
           style="fill:#fcb88c;fill-opacity:1;fill-rule:nonzero;stroke:none"
           id="path59219"
           inkscape:connector-curvature="0" /><path
           d="m 30.576,269.805 c 0.621,-9.888 1.492,-19.753 2.177,-29.606 -0.091,-2.1 -0.243,-4.21 -0.035,-6.305 1.042,-10.044 3.976,-18.747 5.382,-29.175 0.516,-3.831 1.133,-7.227 1.687,-10.555 l 25.583,7.092 z"
           style="fill:#f2aa95;fill-opacity:1;fill-rule:nonzero;stroke:none"
           id="path59221"
           inkscape:connector-curvature="0" /><path
           d="m 39.787,194.164 c 0.917,-5.519 1.662,-10.857 1.486,-17.693 -0.026,-1.035 -0.084,-2.121 -0.153,-3.237 l 11.528,-13.972 c 0.956,4.004 1.896,9.078 2.076,10.546 0.685,-4.027 -0.977,-19.104 6.041,-13.502 -0.078,-1.258 0.512,-1.732 1.779,-1.422 -0.234,2.92 0.122,5.762 1.068,8.527 1.572,-0.19 -0.547,-1.168 3.017,-1.401 0.213,-0.015 0.408,-0.018 0.587,-0.015 l -1.846,39.261 z"
           style="fill:#dba191;fill-opacity:1;fill-rule:nonzero;stroke:none"
           id="path59223"
           inkscape:connector-curvature="0" /><path
           d="m 33.116,318.248 -3.034,-20.572 c -0.201,-2.73 -0.298,-4.81 -0.298,-5.649 0.001,-4.261 0.11,-8.515 0.288,-12.764 l 41.215,32.687 z"
           style="fill:#faa568;fill-opacity:1;fill-rule:nonzero;stroke:none"
           id="path59225"
           inkscape:connector-curvature="0" /><path
           d="m 49.805,343.282 c -5.49,-3.922 -10.231,-8.686 -10.672,-13.109 -0.117,-1.181 -1.372,-4.822 -2.752,-5.026 -1.218,-0.177 -2.25,-2.274 -3.111,-5.337 l -0.154,-1.562 z"
           style="fill:#f6804a;fill-opacity:1;fill-rule:nonzero;stroke:none"
           id="path59227"
           inkscape:connector-curvature="0" /><path
           d="m 49.394,152.396 c 0.004,2.192 0.36,4.328 1.067,6.397 -0.267,-7.978 0.973,-4.618 2.187,0.469 L 41.12,173.234 c -0.655,-10.399 -2.475,-23.304 8.274,-20.838"
           style="fill:#ca8e87;fill-opacity:1;fill-rule:nonzero;stroke:none"
           id="path59229"
           inkscape:connector-curvature="0" /><path
           d="m 32.897,318.381 c -0.016,-0.067 -0.032,-0.134 -0.048,-0.201 l 0.267,0.068 z"
           style="fill:#e97f4c;fill-opacity:1;fill-rule:nonzero;stroke:none"
           id="path59231"
           inkscape:connector-curvature="0" /><path
           d="m 33.27,319.81 c -0.128,-0.457 -0.252,-0.934 -0.373,-1.429 l 0.219,-0.133 z"
           style="fill:#ed7041;fill-opacity:1;fill-rule:nonzero;stroke:none"
           id="path59233"
           inkscape:connector-curvature="0" /><path
           d="m 32.849,318.18 c -1.446,-6.057 -2.341,-14.736 -2.767,-20.504 l 3.034,20.572 z"
           style="fill:#f59a61;fill-opacity:1;fill-rule:nonzero;stroke:none"
           id="path59235"
           inkscape:connector-curvature="0" /><path
           d="m 50.196,340.73 v -0.002 -0.022"
           style="fill:none;stroke:#221e1f;stroke-width:0.75;stroke-linecap:round;stroke-linejoin:round;stroke-miterlimit:4;stroke-dasharray:none;stroke-opacity:1"
           id="path59237"
           inkscape:connector-curvature="0" /></g></g></g></svg>